<svg xmlns="http://www.w3.org/2000/svg" xmlns:xlink="http://www.w3.org/1999/xlink" xmlns:s="https://github.com/nturley/netlistsvg" width="404" height="183">
  <style>svg {
    stroke:#000;
    fill:none;
  }
  text {
    fill:#000;
    stroke:none;
    font-size:10px;
    font-weight: bold;
    font-family: "Courier New", monospace;
  }
  .nodelabel {
    text-anchor: middle;
  }
  .inputPortLabel {
    text-anchor: end;
  }
  .splitjoinBody {
    fill:#000;
  }</style>
  <g s:type="and" transform="translate(340,77.5)" s:width="30" s:height="25" id="cell_$and$generated/yosys/VectorUnit.sv:14$4">
    <s:alias val="$and"/>
    <s:alias val="$logic_and"/>
    <s:alias val="$_AND_"/>
    <path d="M0,0 L0,25 L15,25 A15 12.5 0 0 0 15,0 Z" class="cell_$and$generated/yosys/VectorUnit.sv:14$4"/>
    <g s:x="0" s:y="5" s:pid="A"/>
    <g s:x="0" s:y="20" s:pid="B"/>
    <g s:x="30" s:y="12.5" s:pid="Y"/>
  </g>
  <g s:type="generic" transform="translate(102,22)" s:width="30" s:height="40" id="cell_$auto$ff.cc:266:slice$9">
    <text x="15" y="-4" class="nodelabel cell_$auto$ff.cc:266:slice$9" s:attribute="ref">$sdff</text>
    <rect width="30" height="60" s:generic="body" class="cell_$auto$ff.cc:266:slice$9"/>
    <g transform="translate(0,10)" s:x="0" s:y="10" s:pid="in0" id="port_$auto$ff.cc:266:slice$9~CLK">
      <text x="-3" y="-4" class="inputPortLabel cell_$auto$ff.cc:266:slice$9">CLK</text>
    </g>
    <g transform="translate(0,30)" s:x="0" s:y="10" s:pid="in0" id="port_$auto$ff.cc:266:slice$9~D">
      <text x="-3" y="-4" class="inputPortLabel cell_$auto$ff.cc:266:slice$9">D</text>
    </g>
    <g transform="translate(0,50)" s:x="0" s:y="10" s:pid="in0" id="port_$auto$ff.cc:266:slice$9~SRST">
      <text x="-3" y="-4" class="inputPortLabel cell_$auto$ff.cc:266:slice$9">SRST</text>
    </g>
    <g transform="translate(30,10)" s:x="30" s:y="10" s:pid="out0" id="port_$auto$ff.cc:266:slice$9~Q">
      <text x="5" y="-4" style="fill:#000; stroke:none" class="cell_$auto$ff.cc:266:slice$9">Q</text>
    </g>
  </g>
  <g s:type="not" transform="translate(275,72.5)" s:width="30" s:height="20" id="cell_$not$generated/yosys/VectorUnit.sv:14$2">
    <s:alias val="$_NOT_"/>
    <s:alias val="$not"/>
    <s:alias val="$logic_not"/>
    <path d="M0,0 L0,20 L20,10 Z" class="cell_$not$generated/yosys/VectorUnit.sv:14$2"/>
    <circle cx="23" cy="10" r="3" class="cell_$not$generated/yosys/VectorUnit.sv:14$2"/>
    <g s:x="0" s:y="10" s:pid="A"/>
    <g s:x="25" s:y="10" s:pid="Y"/>
  </g>
  <g s:type="or" transform="translate(275,135)" s:width="30" s:height="25" id="cell_$or$generated/yosys/VectorUnit.sv:14$3">
    <s:alias val="$or"/>
    <s:alias val="$logic_or"/>
    <s:alias val="$_OR_"/>
    <path d="M0,25 L0,25 L15,25 A15 12.5 0 0 0 15,0 L0,0" class="cell_$or$generated/yosys/VectorUnit.sv:14$3"/>
    <path d="M0,0 A30 25 0 0 1 0,25" class="cell_$or$generated/yosys/VectorUnit.sv:14$3"/>
    <g s:x="3" s:y="5" s:pid="A"/>
    <g s:x="3" s:y="20" s:pid="B"/>
    <g s:x="30" s:y="12.5" s:pid="Y"/>
  </g>
  <g s:type="inputExt" transform="translate(12,22.5)" s:width="30" s:height="20" id="cell_clock">
    <text x="15" y="-4" class="nodelabel cell_clock" s:attribute="ref">clock</text>
    <s:alias val="$_inputExt_"/>
    <path d="M0,0 L0,20 L15,20 L30,10 L15,0 Z" class="cell_clock"/>
    <g s:x="28" s:y="10" s:pid="Y"/>
  </g>
  <g s:type="inputExt" transform="translate(12,87.5)" s:width="30" s:height="20" id="cell_reset">
    <text x="15" y="-4" class="nodelabel cell_reset" s:attribute="ref">reset</text>
    <s:alias val="$_inputExt_"/>
    <path d="M0,0 L0,20 L15,20 L30,10 L15,0 Z" class="cell_reset"/>
    <g s:x="28" s:y="10" s:pid="Y"/>
  </g>
  <g s:type="inputExt" transform="translate(102,130)" s:width="30" s:height="20" id="cell_io_start">
    <text x="15" y="-4" class="nodelabel cell_io_start" s:attribute="ref">io_start</text>
    <s:alias val="$_inputExt_"/>
    <path d="M0,0 L0,20 L15,20 L30,10 L15,0 Z" class="cell_io_start"/>
    <g s:x="28" s:y="10" s:pid="Y"/>
  </g>
  <g s:type="outputExt" transform="translate(340,22.5)" s:width="30" s:height="20" id="cell_io_done">
    <text x="15" y="-4" class="nodelabel cell_io_done" s:attribute="ref">io_done</text>
    <s:alias val="$_outputExt_"/>
    <path d="M30,0 L30,20 L15,20 L0,10 L15,0 Z" class="cell_io_done"/>
    <g s:x="0" s:y="10" s:pid="A"/>
  </g>
  <line x1="300" x2="340" y1="82.5" y2="82.5" class="net_6"/>
  <line x1="305" x2="315" y1="147.5" y2="147.5" class="net_7"/>
  <line x1="315" x2="315" y1="147.5" y2="97.5" class="net_7"/>
  <line x1="315" x2="340" y1="97.5" y2="97.5" class="net_7"/>
  <line x1="40" x2="102" y1="32.5" y2="32.5" class="net_2"/>
  <line x1="370" x2="392" y1="90" y2="90" class="net_8"/>
  <line x1="392" x2="392" y1="90" y2="170" class="net_8"/>
  <line x1="392" x2="52" y1="170" y2="170" class="net_8"/>
  <line x1="52" x2="52" y1="170" y2="52.5" class="net_8"/>
  <line x1="52" x2="102" y1="52.5" y2="52.5" class="net_8"/>
  <line x1="40" x2="62" y1="97.5" y2="97.5" class="net_3"/>
  <line x1="62" x2="62" y1="97.5" y2="72.5" class="net_3"/>
  <line x1="62" x2="102" y1="72.5" y2="72.5" class="net_3"/>
  <line x1="133" x2="250" y1="32.5" y2="32.5" class="net_5"/>
  <line x1="250" x2="250" y1="32.5" y2="82.5" class="net_5"/>
  <circle cx="250" cy="32.5" r="2" style="fill:#000" class="net_5"/>
  <circle cx="250" cy="82.5" r="2" style="fill:#000" class="net_5"/>
  <line x1="250" x2="275" y1="82.5" y2="82.5" class="net_5"/>
  <line x1="133" x2="250" y1="32.5" y2="32.5" class="net_5"/>
  <line x1="250" x2="250" y1="32.5" y2="155" class="net_5"/>
  <line x1="250" x2="278" y1="155" y2="155" class="net_5"/>
  <line x1="133" x2="340" y1="32.5" y2="32.5" class="net_5"/>
  <line x1="130" x2="278" y1="140" y2="140" class="net_4"/>
</svg>
