<?xml version="1.0" encoding="UTF-8" standalone="no"?>
<!DOCTYPE svg PUBLIC "-//W3C//DTD SVG 1.1//EN"
 "http://www.w3.org/Graphics/SVG/1.1/DTD/svg11.dtd">
<!-- Generated by graphviz version 2.42.4 (0)
 -->
<!-- Title: ToyAscendNPU Pages: 1 -->
<svg width="401pt" height="714pt"
 viewBox="0.00 0.00 401.00 714.00" xmlns="http://www.w3.org/2000/svg" xmlns:xlink="http://www.w3.org/1999/xlink">
<g id="graph0" class="graph" transform="scale(1 1) rotate(0) translate(4 710)">
<title>ToyAscendNPU</title>
<polygon fill="white" stroke="transparent" points="-4,4 -4,-710 397,-710 397,4 -4,4"/>
<text text-anchor="middle" x="196.5" y="-690.8" font-family="Helvetica,sans-Serif" font-size="14.00">Toy Ascend NPU — 顶层架构图</text>
<g id="clust1" class="cluster">
<title>cluster_ext</title>
<polygon fill="none" stroke="#999999" stroke-dasharray="5,2" points="86,-543 86,-675 360,-675 360,-543 86,-543"/>
<text text-anchor="middle" x="223" y="-659.8" font-family="Helvetica,sans-Serif" font-size="14.00">外部接口</text>
</g>
<g id="clust2" class="cluster">
<title>cluster_top</title>
<path fill="#e3f2fd" stroke="#1565c0" stroke-width="2" d="M20,-8C20,-8 311,-8 311,-8 317,-8 323,-14 323,-20 323,-20 323,-493 323,-493 323,-499 317,-505 311,-505 311,-505 20,-505 20,-505 14,-505 8,-499 8,-493 8,-493 8,-20 8,-20 8,-14 14,-8 20,-8"/>
<text text-anchor="middle" x="165.5" y="-489.8" font-family="Helvetica,sans-Serif" font-size="14.00">ToyAscendTop</text>
</g>
<g id="clust3" class="cluster">
<title>cluster_core</title>
<path fill="#e8f5e9" stroke="#2e7d32" stroke-width="2" d="M37,-16C37,-16 294,-16 294,-16 300,-16 306,-22 306,-28 306,-28 306,-363 306,-363 306,-369 300,-375 294,-375 294,-375 37,-375 37,-375 31,-375 25,-369 25,-363 25,-363 25,-28 25,-28 25,-22 31,-16 37,-16"/>
<text text-anchor="middle" x="165.5" y="-359.8" font-family="Helvetica,sans-Serif" font-size="14.00">AiCore</text>
</g>
<g id="clust4" class="cluster">
<title>cluster_cube</title>
<path fill="#fff3e0" stroke="#e65100" stroke-width="2" d="M45,-24C45,-24 163,-24 163,-24 169,-24 175,-30 175,-36 175,-36 175,-223 175,-223 175,-229 169,-235 163,-235 163,-235 45,-235 45,-235 39,-235 33,-229 33,-223 33,-223 33,-36 33,-36 33,-30 39,-24 45,-24"/>
<text text-anchor="middle" x="104" y="-219.8" font-family="Helvetica,sans-Serif" font-size="14.00">CubeUnit</text>
</g>
<g id="clust5" class="cluster">
<title>cluster_pe</title>
<polygon fill="#ffecb3" stroke="#bf360c" stroke-width="2" stroke-dasharray="5,2" points="48,-32 48,-115 160,-115 160,-32 48,-32"/>
<text text-anchor="middle" x="104" y="-99.8" font-family="Helvetica,sans-Serif" font-size="14.00">PE[4][4]</text>
</g>
<!-- ext_ctrl -->
<g id="node1" class="node">
<title>ext_ctrl</title>
<polygon fill="#e8f5e9" stroke="black" points="298,-577.5 298,-617.5 352,-617.5 352,-577.5 298,-577.5"/>
<text text-anchor="middle" x="325" y="-604.7" font-family="Helvetica,sans-Serif" font-size="11.00">start</text>
<polyline fill="none" stroke="black" points="298,-597.5 352,-597.5 "/>
<text text-anchor="middle" x="325" y="-584.7" font-family="Helvetica,sans-Serif" font-size="11.00">halted</text>
</g>
<!-- scalar -->
<g id="node6" class="node">
<title>scalar</title>
<polygon fill="#ffccbc" stroke="black" points="112,-291.5 112,-343.5 240,-343.5 240,-291.5 112,-291.5"/>
<text text-anchor="middle" x="176" y="-330.7" font-family="Helvetica,sans-Serif" font-size="11.00">ScalarUnit</text>
<polyline fill="none" stroke="black" points="112,-323.5 240,-323.5 "/>
<text text-anchor="start" x="120" y="-310.7" font-family="Helvetica,sans-Serif" font-size="11.00">取指 / 译码 / 控制 FSM</text>
<text text-anchor="middle" x="176" y="-298.7" font-family="Helvetica,sans-Serif" font-size="11.00">11 状态</text>
</g>
<!-- ext_ctrl&#45;&gt;scalar -->
<g id="edge1" class="edge">
<title>ext_ctrl&#45;&gt;scalar</title>
<path fill="none" stroke="#2e7d32" d="M330.27,-577.38C340.09,-537.41 356.7,-443.7 316,-383 300.67,-360.14 275.06,-345.23 249.9,-335.58"/>
<polygon fill="#2e7d32" stroke="#2e7d32" points="250.9,-332.22 240.31,-332.14 248.53,-338.81 250.9,-332.22"/>
<text text-anchor="middle" x="351" y="-445.3" font-family="Helvetica,sans-Serif" font-size="9.00">start</text>
</g>
<!-- ext_imem -->
<g id="node2" class="node">
<title>ext_imem</title>
<polygon fill="#e8f5e9" stroke="black" points="94,-567.5 94,-627.5 184,-627.5 184,-567.5 94,-567.5"/>
<text text-anchor="middle" x="139" y="-614.7" font-family="Helvetica,sans-Serif" font-size="11.00">imemLoadEn</text>
<polyline fill="none" stroke="black" points="94,-607.5 184,-607.5 "/>
<text text-anchor="middle" x="139" y="-594.7" font-family="Helvetica,sans-Serif" font-size="11.00">imemLoadAddr</text>
<polyline fill="none" stroke="black" points="94,-587.5 184,-587.5 "/>
<text text-anchor="middle" x="139" y="-574.7" font-family="Helvetica,sans-Serif" font-size="11.00">imemLoadData</text>
</g>
<!-- imem -->
<g id="node4" class="node">
<title>imem</title>
<polygon fill="#fff9c4" stroke="black" points="55.5,-421.5 55.5,-473.5 140.5,-473.5 140.5,-421.5 55.5,-421.5"/>
<text text-anchor="middle" x="98" y="-460.7" font-family="Helvetica,sans-Serif" font-size="11.00">InstrMem</text>
<polyline fill="none" stroke="black" points="55.5,-453.5 140.5,-453.5 "/>
<text text-anchor="start" x="63.5" y="-440.7" font-family="Helvetica,sans-Serif" font-size="11.00">256 × 32&#45;bit</text>
<text text-anchor="middle" x="98" y="-428.7" font-family="Helvetica,sans-Serif" font-size="11.00">Mem (组合读)</text>
</g>
<!-- ext_imem&#45;&gt;imem -->
<g id="edge3" class="edge">
<title>ext_imem&#45;&gt;imem</title>
<path fill="none" stroke="black" d="M130.9,-567.26C124.22,-543.16 114.74,-508.93 107.67,-483.4"/>
<polygon fill="black" stroke="black" points="111.03,-482.44 104.99,-473.74 104.29,-484.31 111.03,-482.44"/>
<text text-anchor="middle" x="137" y="-520.8" font-family="Helvetica,sans-Serif" font-size="9.00">preload</text>
</g>
<!-- ext_ub -->
<g id="node3" class="node">
<title>ext_ub</title>
<polygon fill="#e8f5e9" stroke="black" points="202.5,-551.5 202.5,-643.5 279.5,-643.5 279.5,-551.5 202.5,-551.5"/>
<text text-anchor="middle" x="241" y="-630.7" font-family="Helvetica,sans-Serif" font-size="11.00">ubExt.en</text>
<polyline fill="none" stroke="black" points="202.5,-623.5 279.5,-623.5 "/>
<text text-anchor="middle" x="241" y="-610.7" font-family="Helvetica,sans-Serif" font-size="11.00">ubExt.we</text>
<polyline fill="none" stroke="black" points="202.5,-603.5 279.5,-603.5 "/>
<text text-anchor="start" x="210.5" y="-590.7" font-family="Helvetica,sans-Serif" font-size="11.00">ubExt.addr</text>
<text text-anchor="middle" x="241" y="-578.7" font-family="Helvetica,sans-Serif" font-size="11.00">ubExt.wdata</text>
<polyline fill="none" stroke="black" points="202.5,-571.5 279.5,-571.5 "/>
<text text-anchor="middle" x="241" y="-558.7" font-family="Helvetica,sans-Serif" font-size="11.00">ubExt.rdata</text>
</g>
<!-- ub -->
<g id="node5" class="node">
<title>ub</title>
<polygon fill="#fff9c4" stroke="black" points="158.5,-421.5 158.5,-473.5 293.5,-473.5 293.5,-421.5 158.5,-421.5"/>
<text text-anchor="middle" x="226" y="-460.7" font-family="Helvetica,sans-Serif" font-size="11.00">UnifiedBuffer</text>
<polyline fill="none" stroke="black" points="158.5,-453.5 293.5,-453.5 "/>
<text text-anchor="start" x="166.5" y="-440.7" font-family="Helvetica,sans-Serif" font-size="11.00">1024 × 128&#45;bit</text>
<text text-anchor="middle" x="226" y="-428.7" font-family="Helvetica,sans-Serif" font-size="11.00">SyncReadMem (双端口)</text>
</g>
<!-- ext_ub&#45;&gt;ub -->
<g id="edge6" class="edge">
<title>ext_ub&#45;&gt;ub</title>
<path fill="none" stroke="black" d="M236.42,-551.29C234.22,-529.57 231.62,-503.94 229.57,-483.7"/>
<polygon fill="black" stroke="black" points="233.04,-483.25 228.55,-473.66 226.08,-483.96 233.04,-483.25"/>
<text text-anchor="middle" x="262.5" y="-525.8" font-family="Helvetica,sans-Serif" font-size="9.00">Port B</text>
<text text-anchor="middle" x="262.5" y="-515.8" font-family="Helvetica,sans-Serif" font-size="9.00">(test preload)</text>
</g>
<!-- imem&#45;&gt;scalar -->
<g id="edge4" class="edge">
<title>imem&#45;&gt;scalar</title>
<path fill="none" stroke="#1565c0" d="M55.45,-425.34C38.37,-413.86 24.85,-398.81 35,-383 50.22,-359.3 76.56,-344.19 102.38,-334.62"/>
<polygon fill="#1565c0" stroke="#1565c0" points="103.55,-337.92 111.85,-331.34 101.26,-331.31 103.55,-337.92"/>
<text text-anchor="middle" x="56" y="-390.8" font-family="Helvetica,sans-Serif" font-size="9.00">instr (32b)</text>
</g>
<!-- ub&#45;&gt;scalar -->
<g id="edge8" class="edge">
<title>ub&#45;&gt;scalar</title>
<path fill="none" stroke="#2e7d32" stroke-dasharray="5,2" d="M174.65,-421.37C168.38,-416.17 162.84,-410.07 159,-403 150.78,-387.86 153.39,-369.25 158.75,-353.36"/>
<polygon fill="#2e7d32" stroke="#2e7d32" points="162.08,-354.45 162.37,-343.86 155.54,-351.96 162.08,-354.45"/>
<text text-anchor="middle" x="184.5" y="-390.8" font-family="Helvetica,sans-Serif" font-size="9.00">rdata (128b)</text>
</g>
<!-- scalar&#45;&gt;ext_ctrl -->
<g id="edge2" class="edge">
<title>scalar&#45;&gt;ext_ctrl</title>
<path fill="none" stroke="#c62828" stroke-dasharray="5,2" d="M240.45,-330.61C287.44,-343.59 345.64,-369.72 362,-421 378.22,-471.84 356.14,-533.27 339.77,-568.32"/>
<polygon fill="#c62828" stroke="#c62828" points="336.55,-566.95 335.34,-577.48 342.85,-570 336.55,-566.95"/>
<text text-anchor="middle" x="380" y="-445.3" font-family="Helvetica,sans-Serif" font-size="9.00">halted</text>
</g>
<!-- scalar&#45;&gt;imem -->
<g id="edge5" class="edge">
<title>scalar&#45;&gt;imem</title>
<path fill="none" stroke="#1565c0" stroke-dasharray="5,2" d="M142.84,-343.56C130.71,-354.4 118.02,-368.03 110,-383 105.41,-391.57 102.55,-401.61 100.78,-411.15"/>
<polygon fill="#1565c0" stroke="#1565c0" points="97.29,-410.8 99.25,-421.21 104.21,-411.85 97.29,-410.8"/>
<text text-anchor="middle" x="130" y="-390.8" font-family="Helvetica,sans-Serif" font-size="9.00">PC (addr)</text>
</g>
<!-- scalar&#45;&gt;ub -->
<g id="edge7" class="edge">
<title>scalar&#45;&gt;ub</title>
<path fill="none" stroke="#2e7d32" d="M193.49,-343.52C200.82,-355.07 208.83,-369.25 214,-383 217.36,-391.95 219.82,-401.97 221.59,-411.36"/>
<polygon fill="#2e7d32" stroke="#2e7d32" points="218.14,-411.95 223.27,-421.23 225.05,-410.78 218.14,-411.95"/>
<text text-anchor="middle" x="259.5" y="-395.8" font-family="Helvetica,sans-Serif" font-size="9.00">Port A</text>
<text text-anchor="middle" x="259.5" y="-385.8" font-family="Helvetica,sans-Serif" font-size="9.00">(en/we/addr/wdata)</text>
</g>
<!-- sa -->
<g id="node7" class="node">
<title>sa</title>
<polygon fill="#ffe0b2" stroke="black" points="41.5,-151.5 41.5,-203.5 166.5,-203.5 166.5,-151.5 41.5,-151.5"/>
<text text-anchor="middle" x="104" y="-190.7" font-family="Helvetica,sans-Serif" font-size="11.00">SystolicArray</text>
<polyline fill="none" stroke="black" points="41.5,-183.5 166.5,-183.5 "/>
<text text-anchor="start" x="49.5" y="-170.7" font-family="Helvetica,sans-Serif" font-size="11.00">4×4 Weight&#45;Stationary</text>
<text text-anchor="middle" x="104" y="-158.7" font-family="Helvetica,sans-Serif" font-size="11.00">激活 → / 部分和 ↓</text>
</g>
<!-- scalar&#45;&gt;sa -->
<g id="edge9" class="edge">
<title>scalar&#45;&gt;sa</title>
<path fill="none" stroke="#e65100" d="M111.89,-306.49C92.65,-300.16 73.6,-289.84 62,-273 49.05,-254.2 59.33,-230.75 72.96,-211.92"/>
<polygon fill="#e65100" stroke="#e65100" points="75.82,-213.94 79.17,-203.89 70.28,-209.66 75.82,-213.94"/>
<text text-anchor="middle" x="82.5" y="-265.8" font-family="Helvetica,sans-Serif" font-size="9.00">cubeStart</text>
<text text-anchor="middle" x="82.5" y="-255.8" font-family="Helvetica,sans-Serif" font-size="9.00">weightBuf</text>
<text text-anchor="middle" x="82.5" y="-245.8" font-family="Helvetica,sans-Serif" font-size="9.00">actBuf</text>
</g>
<!-- vec -->
<g id="node9" class="node">
<title>vec</title>
<polygon fill="#d1c4e9" stroke="black" points="184.5,-151.5 184.5,-203.5 297.5,-203.5 297.5,-151.5 184.5,-151.5"/>
<text text-anchor="middle" x="241" y="-190.7" font-family="Helvetica,sans-Serif" font-size="11.00">VectorUnit</text>
<polyline fill="none" stroke="black" points="184.5,-183.5 297.5,-183.5 "/>
<text text-anchor="start" x="192.5" y="-170.7" font-family="Helvetica,sans-Serif" font-size="11.00">VECADD / RELU</text>
<text text-anchor="middle" x="241" y="-158.7" font-family="Helvetica,sans-Serif" font-size="11.00">单周期, 4路 × 32&#45;bit</text>
</g>
<!-- scalar&#45;&gt;vec -->
<g id="edge11" class="edge">
<title>scalar&#45;&gt;vec</title>
<path fill="none" stroke="#4a148c" d="M178.7,-291.48C180.94,-276.84 184.95,-258.3 192,-243 197.01,-232.13 204.1,-221.37 211.34,-211.83"/>
<polygon fill="#4a148c" stroke="#4a148c" points="214.23,-213.82 217.69,-203.8 208.74,-209.48 214.23,-213.82"/>
<text text-anchor="middle" x="210.5" y="-260.8" font-family="Helvetica,sans-Serif" font-size="9.00">vecStart</text>
<text text-anchor="middle" x="210.5" y="-250.8" font-family="Helvetica,sans-Serif" font-size="9.00">src1/src2</text>
</g>
<!-- sa&#45;&gt;scalar -->
<g id="edge10" class="edge">
<title>sa&#45;&gt;scalar</title>
<path fill="none" stroke="#e65100" stroke-dasharray="5,2" d="M109.51,-203.8C114.51,-223.57 123.11,-251.24 136,-273 138.06,-276.48 140.43,-279.91 142.97,-283.24"/>
<polygon fill="#e65100" stroke="#e65100" points="140.49,-285.73 149.55,-291.24 145.9,-281.29 140.49,-285.73"/>
<text text-anchor="middle" x="157.5" y="-260.8" font-family="Helvetica,sans-Serif" font-size="9.00">cubeDone</text>
<text text-anchor="middle" x="157.5" y="-250.8" font-family="Helvetica,sans-Serif" font-size="9.00">result[4][4]</text>
</g>
<!-- pe -->
<g id="node8" class="node">
<title>pe</title>
<polygon fill="#ffd54f" stroke="black" points="152.5,-84 55.5,-84 55.5,-40 152.5,-40 152.5,-84"/>
<text text-anchor="middle" x="104" y="-71.2" font-family="Helvetica,sans-Serif" font-size="11.00">PE</text>
<text text-anchor="middle" x="104" y="-59.2" font-family="Helvetica,sans-Serif" font-size="11.00">MAC + RegNext</text>
<text text-anchor="middle" x="104" y="-47.2" font-family="Helvetica,sans-Serif" font-size="11.00">weightReg</text>
</g>
<!-- sa&#45;&gt;pe -->
<g id="edge13" class="edge">
<title>sa&#45;&gt;pe</title>
<path fill="none" stroke="#7f7f7f" stroke-dasharray="1,5" d="M104,-151.31C104,-134.5 104,-112.26 104,-94.31"/>
<polygon fill="#7f7f7f" stroke="#7f7f7f" points="107.5,-94.31 104,-84.31 100.5,-94.31 107.5,-94.31"/>
<text text-anchor="middle" x="119" y="-125.8" font-family="Helvetica,sans-Serif" font-size="9.00">16 PEs</text>
</g>
<!-- vec&#45;&gt;scalar -->
<g id="edge12" class="edge">
<title>vec&#45;&gt;scalar</title>
<path fill="none" stroke="#4a148c" stroke-dasharray="5,2" d="M242.72,-203.73C242.97,-223.72 240.76,-251.72 229,-273 226.84,-276.92 224.17,-280.62 221.18,-284.09"/>
<polygon fill="#4a148c" stroke="#4a148c" points="218.65,-281.67 214.23,-291.3 223.69,-286.53 218.65,-281.67"/>
<text text-anchor="middle" x="258.5" y="-260.8" font-family="Helvetica,sans-Serif" font-size="9.00">vecDone</text>
<text text-anchor="middle" x="258.5" y="-250.8" font-family="Helvetica,sans-Serif" font-size="9.00">dst</text>
</g>
</g>
</svg>
