<?xml version="1.0" encoding="UTF-8" standalone="no"?>
<!DOCTYPE svg PUBLIC "-//W3C//DTD SVG 1.1//EN"
 "http://www.w3.org/Graphics/SVG/1.1/DTD/svg11.dtd">
<!-- Generated by graphviz version 2.42.4 (0)
 -->
<!-- Title: SystolicArray Pages: 1 -->
<svg width="631pt" height="569pt"
 viewBox="0.00 0.00 631.00 569.00" xmlns="http://www.w3.org/2000/svg" xmlns:xlink="http://www.w3.org/1999/xlink">
<g id="graph0" class="graph" transform="scale(1 1) rotate(0) translate(4 565)">
<title>SystolicArray</title>
<polygon fill="white" stroke="transparent" points="-4,4 -4,-565 627,-565 627,4 -4,4"/>
<text text-anchor="middle" x="311.5" y="-545.8" font-family="Helvetica,sans-Serif" font-size="14.00">4×4 Weight&#45;Stationary 收缩阵列</text>
<text text-anchor="middle" x="311.5" y="-530.8" font-family="Helvetica,sans-Serif" font-size="14.00">C[i][j] = Σ_k A[i][k] × W[k][j]</text>
<!-- act_0 -->
<g id="node1" class="node">
<title>act_0</title>
<polygon fill="#c8e6c9" stroke="black" points="74,-517 0,-517 0,-486 74,-486 86,-501.5 74,-517"/>
<text text-anchor="middle" x="43" y="-504.5" font-family="Courier,monospace" font-size="10.00">actIn(0)</text>
<text text-anchor="middle" x="43" y="-493.5" font-family="Courier,monospace" font-size="10.00">A[i][0]</text>
</g>
<!-- pe_0_0 -->
<g id="node9" class="node">
<title>pe_0_0</title>
<polygon fill="#ffe0b2" stroke="black" points="135,-395 63,-395 63,-352 135,-352 135,-395"/>
<text text-anchor="middle" x="99" y="-376.5" font-family="Courier,monospace" font-size="10.00">PE[0][0]</text>
<text text-anchor="middle" x="99" y="-365.5" font-family="Courier,monospace" font-size="10.00">W[0][0]</text>
</g>
<!-- act_0&#45;&gt;pe_0_0 -->
<g id="edge1" class="edge">
<title>act_0&#45;&gt;pe_0_0</title>
<path fill="none" stroke="#2e7d32" d="M42.28,-479.96C42.52,-467.93 44.01,-452.67 49,-440 54.27,-426.64 63.09,-413.68 71.88,-402.87"/>
<polygon fill="#2e7d32" stroke="#2e7d32" points="74.72,-404.93 78.53,-395.04 69.38,-400.4 74.72,-404.93"/>
<text text-anchor="middle" x="57" y="-449.1" font-family="Helvetica,sans-Serif" font-size="8.00">data</text>
</g>
<!-- act_1 -->
<g id="node2" class="node">
<title>act_1</title>
<polygon fill="#c8e6c9" stroke="black" points="178,-517 104,-517 104,-486 178,-486 190,-501.5 178,-517"/>
<text text-anchor="middle" x="147" y="-504.5" font-family="Courier,monospace" font-size="10.00">actIn(1)</text>
<text text-anchor="middle" x="147" y="-493.5" font-family="Courier,monospace" font-size="10.00">A[i][1]</text>
</g>
<!-- pe_1_0 -->
<g id="node13" class="node">
<title>pe_1_0</title>
<polygon fill="#ffe0b2" stroke="black" points="187,-307 115,-307 115,-264 187,-264 187,-307"/>
<text text-anchor="middle" x="151" y="-288.5" font-family="Courier,monospace" font-size="10.00">PE[1][0]</text>
<text text-anchor="middle" x="151" y="-277.5" font-family="Courier,monospace" font-size="10.00">W[1][0]</text>
</g>
<!-- act_1&#45;&gt;pe_1_0 -->
<g id="edge5" class="edge">
<title>act_1&#45;&gt;pe_1_0</title>
<path fill="none" stroke="#2e7d32" d="M147.38,-479.98C148.09,-442.29 149.59,-361.83 150.42,-317.47"/>
<polygon fill="#2e7d32" stroke="#2e7d32" points="153.92,-317.34 150.61,-307.27 146.93,-317.2 153.92,-317.34"/>
<text text-anchor="middle" x="156" y="-415.6" font-family="Helvetica,sans-Serif" font-size="8.00">data</text>
</g>
<!-- act_2 -->
<g id="node3" class="node">
<title>act_2</title>
<polygon fill="#c8e6c9" stroke="black" points="282,-517 208,-517 208,-486 282,-486 294,-501.5 282,-517"/>
<text text-anchor="middle" x="251" y="-504.5" font-family="Courier,monospace" font-size="10.00">actIn(2)</text>
<text text-anchor="middle" x="251" y="-493.5" font-family="Courier,monospace" font-size="10.00">A[i][2]</text>
</g>
<!-- pe_2_0 -->
<g id="node17" class="node">
<title>pe_2_0</title>
<polygon fill="#ffe0b2" stroke="black" points="278,-219 206,-219 206,-176 278,-176 278,-219"/>
<text text-anchor="middle" x="242" y="-200.5" font-family="Courier,monospace" font-size="10.00">PE[2][0]</text>
<text text-anchor="middle" x="242" y="-189.5" font-family="Courier,monospace" font-size="10.00">W[2][0]</text>
</g>
<!-- act_2&#45;&gt;pe_2_0 -->
<g id="edge9" class="edge">
<title>act_2&#45;&gt;pe_2_0</title>
<path fill="none" stroke="#2e7d32" d="M251,-479.94C251,-463.36 251,-439.43 251,-418.5 251,-418.5 251,-418.5 251,-284.5 251,-266.15 248.95,-245.72 246.8,-229.38"/>
<polygon fill="#2e7d32" stroke="#2e7d32" points="250.25,-228.71 245.4,-219.29 243.31,-229.68 250.25,-228.71"/>
<text text-anchor="middle" x="259" y="-371.6" font-family="Helvetica,sans-Serif" font-size="8.00">data</text>
</g>
<!-- act_3 -->
<g id="node4" class="node">
<title>act_3</title>
<polygon fill="#c8e6c9" stroke="black" points="386,-517 312,-517 312,-486 386,-486 398,-501.5 386,-517"/>
<text text-anchor="middle" x="355" y="-504.5" font-family="Courier,monospace" font-size="10.00">actIn(3)</text>
<text text-anchor="middle" x="355" y="-493.5" font-family="Courier,monospace" font-size="10.00">A[i][3]</text>
</g>
<!-- pe_3_0 -->
<g id="node21" class="node">
<title>pe_3_0</title>
<polygon fill="#ffe0b2" stroke="black" points="278,-131 206,-131 206,-88 278,-88 278,-131"/>
<text text-anchor="middle" x="242" y="-112.5" font-family="Courier,monospace" font-size="10.00">PE[3][0]</text>
<text text-anchor="middle" x="242" y="-101.5" font-family="Courier,monospace" font-size="10.00">W[3][0]</text>
</g>
<!-- act_3&#45;&gt;pe_3_0 -->
<g id="edge13" class="edge">
<title>act_3&#45;&gt;pe_3_0</title>
<path fill="none" stroke="#2e7d32" d="M333.8,-479.96C320.17,-464.5 305,-442.01 305,-418.5 305,-418.5 305,-418.5 305,-196.5 305,-174.07 290.89,-153.61 276.02,-138.28"/>
<polygon fill="#2e7d32" stroke="#2e7d32" points="278.33,-135.64 268.72,-131.17 273.45,-140.65 278.33,-135.64"/>
<text text-anchor="middle" x="313" y="-327.6" font-family="Helvetica,sans-Serif" font-size="8.00">data</text>
</g>
<!-- psum_top_0 -->
<g id="node5" class="node">
<title>psum_top_0</title>
<polygon fill="#ffe0b2" stroke="transparent" points="116.5,-462 73.5,-462 73.5,-440 116.5,-440 116.5,-462"/>
<text text-anchor="middle" x="95" y="-449.1" font-family="Courier,monospace" font-size="8.00">psum=0</text>
</g>
<!-- psum_top_0&#45;&gt;pe_0_0 -->
<g id="edge17" class="edge">
<title>psum_top_0&#45;&gt;pe_0_0</title>
<path fill="none" stroke="#1565c0" d="M95.54,-439.82C96.01,-430.89 96.73,-417.43 97.38,-405.05"/>
<polygon fill="#1565c0" stroke="#1565c0" points="100.88,-405.19 97.91,-395.02 93.89,-404.82 100.88,-405.19"/>
<text text-anchor="middle" x="106" y="-415.6" font-family="Helvetica,sans-Serif" font-size="8.00">psum</text>
</g>
<!-- psum_top_1 -->
<g id="node6" class="node">
<title>psum_top_1</title>
<polygon fill="#ffe0b2" stroke="transparent" points="378.5,-462 335.5,-462 335.5,-440 378.5,-440 378.5,-462"/>
<text text-anchor="middle" x="357" y="-449.1" font-family="Courier,monospace" font-size="8.00">psum=0</text>
</g>
<!-- pe_0_1 -->
<g id="node10" class="node">
<title>pe_0_1</title>
<polygon fill="#ffe0b2" stroke="black" points="393,-395 321,-395 321,-352 393,-352 393,-395"/>
<text text-anchor="middle" x="357" y="-376.5" font-family="Courier,monospace" font-size="10.00">PE[0][1]</text>
<text text-anchor="middle" x="357" y="-365.5" font-family="Courier,monospace" font-size="10.00">W[0][1]</text>
</g>
<!-- psum_top_1&#45;&gt;pe_0_1 -->
<g id="edge22" class="edge">
<title>psum_top_1&#45;&gt;pe_0_1</title>
<path fill="none" stroke="#1565c0" d="M357,-439.82C357,-430.89 357,-417.43 357,-405.05"/>
<polygon fill="#1565c0" stroke="#1565c0" points="360.5,-405.02 357,-395.02 353.5,-405.02 360.5,-405.02"/>
<text text-anchor="middle" x="367" y="-415.6" font-family="Helvetica,sans-Serif" font-size="8.00">psum</text>
</g>
<!-- psum_top_2 -->
<g id="node7" class="node">
<title>psum_top_2</title>
<polygon fill="#ffe0b2" stroke="transparent" points="493.5,-462 450.5,-462 450.5,-440 493.5,-440 493.5,-462"/>
<text text-anchor="middle" x="472" y="-449.1" font-family="Courier,monospace" font-size="8.00">psum=0</text>
</g>
<!-- pe_0_2 -->
<g id="node11" class="node">
<title>pe_0_2</title>
<polygon fill="#ffe0b2" stroke="black" points="508,-395 436,-395 436,-352 508,-352 508,-395"/>
<text text-anchor="middle" x="472" y="-376.5" font-family="Courier,monospace" font-size="10.00">PE[0][2]</text>
<text text-anchor="middle" x="472" y="-365.5" font-family="Courier,monospace" font-size="10.00">W[0][2]</text>
</g>
<!-- psum_top_2&#45;&gt;pe_0_2 -->
<g id="edge27" class="edge">
<title>psum_top_2&#45;&gt;pe_0_2</title>
<path fill="none" stroke="#1565c0" d="M472,-439.82C472,-430.89 472,-417.43 472,-405.05"/>
<polygon fill="#1565c0" stroke="#1565c0" points="475.5,-405.02 472,-395.02 468.5,-405.02 475.5,-405.02"/>
<text text-anchor="middle" x="482" y="-415.6" font-family="Helvetica,sans-Serif" font-size="8.00">psum</text>
</g>
<!-- psum_top_3 -->
<g id="node8" class="node">
<title>psum_top_3</title>
<polygon fill="#ffe0b2" stroke="transparent" points="608.5,-462 565.5,-462 565.5,-440 608.5,-440 608.5,-462"/>
<text text-anchor="middle" x="587" y="-449.1" font-family="Courier,monospace" font-size="8.00">psum=0</text>
</g>
<!-- pe_0_3 -->
<g id="node12" class="node">
<title>pe_0_3</title>
<polygon fill="#ffe0b2" stroke="black" points="623,-395 551,-395 551,-352 623,-352 623,-395"/>
<text text-anchor="middle" x="587" y="-376.5" font-family="Courier,monospace" font-size="10.00">PE[0][3]</text>
<text text-anchor="middle" x="587" y="-365.5" font-family="Courier,monospace" font-size="10.00">W[0][3]</text>
</g>
<!-- psum_top_3&#45;&gt;pe_0_3 -->
<g id="edge32" class="edge">
<title>psum_top_3&#45;&gt;pe_0_3</title>
<path fill="none" stroke="#1565c0" d="M587,-439.82C587,-430.89 587,-417.43 587,-405.05"/>
<polygon fill="#1565c0" stroke="#1565c0" points="590.5,-405.02 587,-395.02 583.5,-405.02 590.5,-405.02"/>
<text text-anchor="middle" x="597" y="-415.6" font-family="Helvetica,sans-Serif" font-size="8.00">psum</text>
</g>
<!-- pe_0_0&#45;&gt;pe_0_1 -->
<g id="edge2" class="edge">
<title>pe_0_0&#45;&gt;pe_0_1</title>
<path fill="none" stroke="#2e7d32" d="M135.07,-393.55C152.22,-401.96 173.33,-410.77 193.5,-415 227.63,-422.16 285.61,-405.4 311.12,-396.91"/>
<polygon fill="#2e7d32" stroke="#2e7d32" points="312.28,-400.21 320.58,-393.63 309.98,-393.6 312.28,-400.21"/>
<text text-anchor="middle" x="206" y="-415.6" font-family="Helvetica,sans-Serif" font-size="8.00">data→</text>
</g>
<!-- pe_0_0&#45;&gt;pe_1_0 -->
<g id="edge18" class="edge">
<title>pe_0_0&#45;&gt;pe_1_0</title>
<path fill="none" stroke="#1565c0" d="M102.78,-351.72C104.94,-343.06 108.2,-333.15 113,-325 115.03,-321.55 117.45,-318.18 120.05,-314.96"/>
<polygon fill="#1565c0" stroke="#1565c0" points="122.82,-317.11 126.83,-307.3 117.58,-312.47 122.82,-317.11"/>
<text text-anchor="middle" x="125" y="-327.6" font-family="Helvetica,sans-Serif" font-size="8.00">psum↓</text>
</g>
<!-- pe_0_1&#45;&gt;pe_0_2 -->
<g id="edge3" class="edge">
<title>pe_0_1&#45;&gt;pe_0_2</title>
<path fill="none" stroke="#2e7d32" d="M393.07,-373.5C403.35,-373.5 414.7,-373.5 425.51,-373.5"/>
<polygon fill="#2e7d32" stroke="#2e7d32" points="425.66,-377 435.66,-373.5 425.66,-370 425.66,-377"/>
<text text-anchor="middle" x="414.5" y="-379.1" font-family="Helvetica,sans-Serif" font-size="8.00">data→</text>
</g>
<!-- pe_1_1 -->
<g id="node14" class="node">
<title>pe_1_1</title>
<polygon fill="#ffe0b2" stroke="black" points="393,-307 321,-307 321,-264 393,-264 393,-307"/>
<text text-anchor="middle" x="357" y="-288.5" font-family="Courier,monospace" font-size="10.00">PE[1][1]</text>
<text text-anchor="middle" x="357" y="-277.5" font-family="Courier,monospace" font-size="10.00">W[1][1]</text>
</g>
<!-- pe_0_1&#45;&gt;pe_1_1 -->
<g id="edge23" class="edge">
<title>pe_0_1&#45;&gt;pe_1_1</title>
<path fill="none" stroke="#1565c0" d="M357,-351.68C357,-341.33 357,-328.62 357,-317.17"/>
<polygon fill="#1565c0" stroke="#1565c0" points="360.5,-317.13 357,-307.13 353.5,-317.13 360.5,-317.13"/>
<text text-anchor="middle" x="369" y="-327.6" font-family="Helvetica,sans-Serif" font-size="8.00">psum↓</text>
</g>
<!-- pe_0_2&#45;&gt;pe_0_3 -->
<g id="edge4" class="edge">
<title>pe_0_2&#45;&gt;pe_0_3</title>
<path fill="none" stroke="#2e7d32" d="M508.07,-373.5C518.35,-373.5 529.7,-373.5 540.51,-373.5"/>
<polygon fill="#2e7d32" stroke="#2e7d32" points="540.66,-377 550.66,-373.5 540.66,-370 540.66,-377"/>
<text text-anchor="middle" x="529.5" y="-379.1" font-family="Helvetica,sans-Serif" font-size="8.00">data→</text>
</g>
<!-- pe_1_2 -->
<g id="node15" class="node">
<title>pe_1_2</title>
<polygon fill="#ffe0b2" stroke="black" points="508,-307 436,-307 436,-264 508,-264 508,-307"/>
<text text-anchor="middle" x="472" y="-288.5" font-family="Courier,monospace" font-size="10.00">PE[1][2]</text>
<text text-anchor="middle" x="472" y="-277.5" font-family="Courier,monospace" font-size="10.00">W[1][2]</text>
</g>
<!-- pe_0_2&#45;&gt;pe_1_2 -->
<g id="edge28" class="edge">
<title>pe_0_2&#45;&gt;pe_1_2</title>
<path fill="none" stroke="#1565c0" d="M472,-351.68C472,-341.33 472,-328.62 472,-317.17"/>
<polygon fill="#1565c0" stroke="#1565c0" points="475.5,-317.13 472,-307.13 468.5,-317.13 475.5,-317.13"/>
<text text-anchor="middle" x="484" y="-327.6" font-family="Helvetica,sans-Serif" font-size="8.00">psum↓</text>
</g>
<!-- pe_1_3 -->
<g id="node16" class="node">
<title>pe_1_3</title>
<polygon fill="#ffe0b2" stroke="black" points="623,-307 551,-307 551,-264 623,-264 623,-307"/>
<text text-anchor="middle" x="587" y="-288.5" font-family="Courier,monospace" font-size="10.00">PE[1][3]</text>
<text text-anchor="middle" x="587" y="-277.5" font-family="Courier,monospace" font-size="10.00">W[1][3]</text>
</g>
<!-- pe_0_3&#45;&gt;pe_1_3 -->
<g id="edge33" class="edge">
<title>pe_0_3&#45;&gt;pe_1_3</title>
<path fill="none" stroke="#1565c0" d="M587,-351.68C587,-341.33 587,-328.62 587,-317.17"/>
<polygon fill="#1565c0" stroke="#1565c0" points="590.5,-317.13 587,-307.13 583.5,-317.13 590.5,-317.13"/>
<text text-anchor="middle" x="599" y="-327.6" font-family="Helvetica,sans-Serif" font-size="8.00">psum↓</text>
</g>
<!-- pe_1_0&#45;&gt;pe_1_1 -->
<g id="edge6" class="edge">
<title>pe_1_0&#45;&gt;pe_1_1</title>
<path fill="none" stroke="#2e7d32" d="M187.35,-285.5C221.67,-285.5 273.27,-285.5 310.55,-285.5"/>
<polygon fill="#2e7d32" stroke="#2e7d32" points="310.66,-289 320.66,-285.5 310.66,-282 310.66,-289"/>
<text text-anchor="middle" x="254" y="-291.1" font-family="Helvetica,sans-Serif" font-size="8.00">data→</text>
</g>
<!-- pe_1_0&#45;&gt;pe_2_0 -->
<g id="edge19" class="edge">
<title>pe_1_0&#45;&gt;pe_2_0</title>
<path fill="none" stroke="#1565c0" d="M173.03,-263.68C184.99,-252.38 199.93,-238.26 212.84,-226.06"/>
<polygon fill="#1565c0" stroke="#1565c0" points="215.31,-228.54 220.17,-219.13 210.5,-223.45 215.31,-228.54"/>
<text text-anchor="middle" x="211" y="-239.6" font-family="Helvetica,sans-Serif" font-size="8.00">psum↓</text>
</g>
<!-- pe_1_1&#45;&gt;pe_1_2 -->
<g id="edge7" class="edge">
<title>pe_1_1&#45;&gt;pe_1_2</title>
<path fill="none" stroke="#2e7d32" d="M393.07,-285.5C403.35,-285.5 414.7,-285.5 425.51,-285.5"/>
<polygon fill="#2e7d32" stroke="#2e7d32" points="425.66,-289 435.66,-285.5 425.66,-282 425.66,-289"/>
<text text-anchor="middle" x="414.5" y="-291.1" font-family="Helvetica,sans-Serif" font-size="8.00">data→</text>
</g>
<!-- pe_2_1 -->
<g id="node18" class="node">
<title>pe_2_1</title>
<polygon fill="#ffe0b2" stroke="black" points="393,-219 321,-219 321,-176 393,-176 393,-219"/>
<text text-anchor="middle" x="357" y="-200.5" font-family="Courier,monospace" font-size="10.00">PE[2][1]</text>
<text text-anchor="middle" x="357" y="-189.5" font-family="Courier,monospace" font-size="10.00">W[2][1]</text>
</g>
<!-- pe_1_1&#45;&gt;pe_2_1 -->
<g id="edge24" class="edge">
<title>pe_1_1&#45;&gt;pe_2_1</title>
<path fill="none" stroke="#1565c0" d="M357,-263.68C357,-253.33 357,-240.62 357,-229.17"/>
<polygon fill="#1565c0" stroke="#1565c0" points="360.5,-229.13 357,-219.13 353.5,-229.13 360.5,-229.13"/>
<text text-anchor="middle" x="369" y="-239.6" font-family="Helvetica,sans-Serif" font-size="8.00">psum↓</text>
</g>
<!-- pe_1_2&#45;&gt;pe_1_3 -->
<g id="edge8" class="edge">
<title>pe_1_2&#45;&gt;pe_1_3</title>
<path fill="none" stroke="#2e7d32" d="M508.07,-285.5C518.35,-285.5 529.7,-285.5 540.51,-285.5"/>
<polygon fill="#2e7d32" stroke="#2e7d32" points="540.66,-289 550.66,-285.5 540.66,-282 540.66,-289"/>
<text text-anchor="middle" x="529.5" y="-291.1" font-family="Helvetica,sans-Serif" font-size="8.00">data→</text>
</g>
<!-- pe_2_2 -->
<g id="node19" class="node">
<title>pe_2_2</title>
<polygon fill="#ffe0b2" stroke="black" points="508,-219 436,-219 436,-176 508,-176 508,-219"/>
<text text-anchor="middle" x="472" y="-200.5" font-family="Courier,monospace" font-size="10.00">PE[2][2]</text>
<text text-anchor="middle" x="472" y="-189.5" font-family="Courier,monospace" font-size="10.00">W[2][2]</text>
</g>
<!-- pe_1_2&#45;&gt;pe_2_2 -->
<g id="edge29" class="edge">
<title>pe_1_2&#45;&gt;pe_2_2</title>
<path fill="none" stroke="#1565c0" d="M472,-263.68C472,-253.33 472,-240.62 472,-229.17"/>
<polygon fill="#1565c0" stroke="#1565c0" points="475.5,-229.13 472,-219.13 468.5,-229.13 475.5,-229.13"/>
<text text-anchor="middle" x="484" y="-239.6" font-family="Helvetica,sans-Serif" font-size="8.00">psum↓</text>
</g>
<!-- pe_2_3 -->
<g id="node20" class="node">
<title>pe_2_3</title>
<polygon fill="#ffe0b2" stroke="black" points="623,-219 551,-219 551,-176 623,-176 623,-219"/>
<text text-anchor="middle" x="587" y="-200.5" font-family="Courier,monospace" font-size="10.00">PE[2][3]</text>
<text text-anchor="middle" x="587" y="-189.5" font-family="Courier,monospace" font-size="10.00">W[2][3]</text>
</g>
<!-- pe_1_3&#45;&gt;pe_2_3 -->
<g id="edge34" class="edge">
<title>pe_1_3&#45;&gt;pe_2_3</title>
<path fill="none" stroke="#1565c0" d="M587,-263.68C587,-253.33 587,-240.62 587,-229.17"/>
<polygon fill="#1565c0" stroke="#1565c0" points="590.5,-229.13 587,-219.13 583.5,-229.13 590.5,-229.13"/>
<text text-anchor="middle" x="599" y="-239.6" font-family="Helvetica,sans-Serif" font-size="8.00">psum↓</text>
</g>
<!-- pe_2_0&#45;&gt;pe_2_1 -->
<g id="edge10" class="edge">
<title>pe_2_0&#45;&gt;pe_2_1</title>
<path fill="none" stroke="#2e7d32" d="M278.07,-197.5C288.35,-197.5 299.7,-197.5 310.51,-197.5"/>
<polygon fill="#2e7d32" stroke="#2e7d32" points="310.66,-201 320.66,-197.5 310.66,-194 310.66,-201"/>
<text text-anchor="middle" x="299.5" y="-203.1" font-family="Helvetica,sans-Serif" font-size="8.00">data→</text>
</g>
<!-- pe_2_0&#45;&gt;pe_3_0 -->
<g id="edge20" class="edge">
<title>pe_2_0&#45;&gt;pe_3_0</title>
<path fill="none" stroke="#1565c0" d="M242,-175.68C242,-165.33 242,-152.62 242,-141.17"/>
<polygon fill="#1565c0" stroke="#1565c0" points="245.5,-141.13 242,-131.13 238.5,-141.13 245.5,-141.13"/>
<text text-anchor="middle" x="254" y="-151.6" font-family="Helvetica,sans-Serif" font-size="8.00">psum↓</text>
</g>
<!-- pe_2_1&#45;&gt;pe_2_2 -->
<g id="edge11" class="edge">
<title>pe_2_1&#45;&gt;pe_2_2</title>
<path fill="none" stroke="#2e7d32" d="M393.07,-197.5C403.35,-197.5 414.7,-197.5 425.51,-197.5"/>
<polygon fill="#2e7d32" stroke="#2e7d32" points="425.66,-201 435.66,-197.5 425.66,-194 425.66,-201"/>
<text text-anchor="middle" x="414.5" y="-203.1" font-family="Helvetica,sans-Serif" font-size="8.00">data→</text>
</g>
<!-- pe_3_1 -->
<g id="node22" class="node">
<title>pe_3_1</title>
<polygon fill="#ffe0b2" stroke="black" points="393,-131 321,-131 321,-88 393,-88 393,-131"/>
<text text-anchor="middle" x="357" y="-112.5" font-family="Courier,monospace" font-size="10.00">PE[3][1]</text>
<text text-anchor="middle" x="357" y="-101.5" font-family="Courier,monospace" font-size="10.00">W[3][1]</text>
</g>
<!-- pe_2_1&#45;&gt;pe_3_1 -->
<g id="edge25" class="edge">
<title>pe_2_1&#45;&gt;pe_3_1</title>
<path fill="none" stroke="#1565c0" d="M357,-175.68C357,-165.33 357,-152.62 357,-141.17"/>
<polygon fill="#1565c0" stroke="#1565c0" points="360.5,-141.13 357,-131.13 353.5,-141.13 360.5,-141.13"/>
<text text-anchor="middle" x="369" y="-151.6" font-family="Helvetica,sans-Serif" font-size="8.00">psum↓</text>
</g>
<!-- pe_2_2&#45;&gt;pe_2_3 -->
<g id="edge12" class="edge">
<title>pe_2_2&#45;&gt;pe_2_3</title>
<path fill="none" stroke="#2e7d32" d="M508.07,-197.5C518.35,-197.5 529.7,-197.5 540.51,-197.5"/>
<polygon fill="#2e7d32" stroke="#2e7d32" points="540.66,-201 550.66,-197.5 540.66,-194 540.66,-201"/>
<text text-anchor="middle" x="529.5" y="-203.1" font-family="Helvetica,sans-Serif" font-size="8.00">data→</text>
</g>
<!-- pe_3_2 -->
<g id="node23" class="node">
<title>pe_3_2</title>
<polygon fill="#ffe0b2" stroke="black" points="508,-131 436,-131 436,-88 508,-88 508,-131"/>
<text text-anchor="middle" x="472" y="-112.5" font-family="Courier,monospace" font-size="10.00">PE[3][2]</text>
<text text-anchor="middle" x="472" y="-101.5" font-family="Courier,monospace" font-size="10.00">W[3][2]</text>
</g>
<!-- pe_2_2&#45;&gt;pe_3_2 -->
<g id="edge30" class="edge">
<title>pe_2_2&#45;&gt;pe_3_2</title>
<path fill="none" stroke="#1565c0" d="M472,-175.68C472,-165.33 472,-152.62 472,-141.17"/>
<polygon fill="#1565c0" stroke="#1565c0" points="475.5,-141.13 472,-131.13 468.5,-141.13 475.5,-141.13"/>
<text text-anchor="middle" x="484" y="-151.6" font-family="Helvetica,sans-Serif" font-size="8.00">psum↓</text>
</g>
<!-- pe_3_3 -->
<g id="node24" class="node">
<title>pe_3_3</title>
<polygon fill="#ffe0b2" stroke="black" points="623,-131 551,-131 551,-88 623,-88 623,-131"/>
<text text-anchor="middle" x="587" y="-112.5" font-family="Courier,monospace" font-size="10.00">PE[3][3]</text>
<text text-anchor="middle" x="587" y="-101.5" font-family="Courier,monospace" font-size="10.00">W[3][3]</text>
</g>
<!-- pe_2_3&#45;&gt;pe_3_3 -->
<g id="edge35" class="edge">
<title>pe_2_3&#45;&gt;pe_3_3</title>
<path fill="none" stroke="#1565c0" d="M587,-175.68C587,-165.33 587,-152.62 587,-141.17"/>
<polygon fill="#1565c0" stroke="#1565c0" points="590.5,-141.13 587,-131.13 583.5,-141.13 590.5,-141.13"/>
<text text-anchor="middle" x="599" y="-151.6" font-family="Helvetica,sans-Serif" font-size="8.00">psum↓</text>
</g>
<!-- pe_3_0&#45;&gt;pe_3_1 -->
<g id="edge14" class="edge">
<title>pe_3_0&#45;&gt;pe_3_1</title>
<path fill="none" stroke="#2e7d32" d="M278.07,-109.5C288.35,-109.5 299.7,-109.5 310.51,-109.5"/>
<polygon fill="#2e7d32" stroke="#2e7d32" points="310.66,-113 320.66,-109.5 310.66,-106 310.66,-113"/>
<text text-anchor="middle" x="299.5" y="-115.1" font-family="Helvetica,sans-Serif" font-size="8.00">data→</text>
</g>
<!-- res_0 -->
<g id="node25" class="node">
<title>res_0</title>
<polygon fill="#bbdefb" stroke="black" points="266,-37 206,-37 206,-6 266,-6 278,-21.5 266,-37"/>
<text text-anchor="middle" x="242" y="-19" font-family="Courier,monospace" font-size="10.00">C[i][0]</text>
</g>
<!-- pe_3_0&#45;&gt;res_0 -->
<g id="edge21" class="edge">
<title>pe_3_0&#45;&gt;res_0</title>
<path fill="none" stroke="#c62828" d="M242,-87.68C242,-77.33 242,-64.62 242,-53.17"/>
<polygon fill="#c62828" stroke="#c62828" points="245.5,-53.13 242,-43.13 238.5,-53.13 245.5,-53.13"/>
<text text-anchor="middle" x="252" y="-63.6" font-family="Helvetica,sans-Serif" font-size="8.00">result</text>
</g>
<!-- pe_3_1&#45;&gt;pe_3_2 -->
<g id="edge15" class="edge">
<title>pe_3_1&#45;&gt;pe_3_2</title>
<path fill="none" stroke="#2e7d32" d="M393.07,-109.5C403.35,-109.5 414.7,-109.5 425.51,-109.5"/>
<polygon fill="#2e7d32" stroke="#2e7d32" points="425.66,-113 435.66,-109.5 425.66,-106 425.66,-113"/>
<text text-anchor="middle" x="414.5" y="-115.1" font-family="Helvetica,sans-Serif" font-size="8.00">data→</text>
</g>
<!-- res_1 -->
<g id="node26" class="node">
<title>res_1</title>
<polygon fill="#bbdefb" stroke="black" points="381,-37 321,-37 321,-6 381,-6 393,-21.5 381,-37"/>
<text text-anchor="middle" x="357" y="-19" font-family="Courier,monospace" font-size="10.00">C[i][1]</text>
</g>
<!-- pe_3_1&#45;&gt;res_1 -->
<g id="edge26" class="edge">
<title>pe_3_1&#45;&gt;res_1</title>
<path fill="none" stroke="#c62828" d="M357,-87.68C357,-77.33 357,-64.62 357,-53.17"/>
<polygon fill="#c62828" stroke="#c62828" points="360.5,-53.13 357,-43.13 353.5,-53.13 360.5,-53.13"/>
<text text-anchor="middle" x="367" y="-63.6" font-family="Helvetica,sans-Serif" font-size="8.00">result</text>
</g>
<!-- pe_3_2&#45;&gt;pe_3_3 -->
<g id="edge16" class="edge">
<title>pe_3_2&#45;&gt;pe_3_3</title>
<path fill="none" stroke="#2e7d32" d="M508.07,-109.5C518.35,-109.5 529.7,-109.5 540.51,-109.5"/>
<polygon fill="#2e7d32" stroke="#2e7d32" points="540.66,-113 550.66,-109.5 540.66,-106 540.66,-113"/>
<text text-anchor="middle" x="529.5" y="-115.1" font-family="Helvetica,sans-Serif" font-size="8.00">data→</text>
</g>
<!-- res_2 -->
<g id="node27" class="node">
<title>res_2</title>
<polygon fill="#bbdefb" stroke="black" points="496,-37 436,-37 436,-6 496,-6 508,-21.5 496,-37"/>
<text text-anchor="middle" x="472" y="-19" font-family="Courier,monospace" font-size="10.00">C[i][2]</text>
</g>
<!-- pe_3_2&#45;&gt;res_2 -->
<g id="edge31" class="edge">
<title>pe_3_2&#45;&gt;res_2</title>
<path fill="none" stroke="#c62828" d="M472,-87.68C472,-77.33 472,-64.62 472,-53.17"/>
<polygon fill="#c62828" stroke="#c62828" points="475.5,-53.13 472,-43.13 468.5,-53.13 475.5,-53.13"/>
<text text-anchor="middle" x="482" y="-63.6" font-family="Helvetica,sans-Serif" font-size="8.00">result</text>
</g>
<!-- res_3 -->
<g id="node28" class="node">
<title>res_3</title>
<polygon fill="#bbdefb" stroke="black" points="611,-37 551,-37 551,-6 611,-6 623,-21.5 611,-37"/>
<text text-anchor="middle" x="587" y="-19" font-family="Courier,monospace" font-size="10.00">C[i][3]</text>
</g>
<!-- pe_3_3&#45;&gt;res_3 -->
<g id="edge36" class="edge">
<title>pe_3_3&#45;&gt;res_3</title>
<path fill="none" stroke="#c62828" d="M587,-87.68C587,-77.33 587,-64.62 587,-53.17"/>
<polygon fill="#c62828" stroke="#c62828" points="590.5,-53.13 587,-43.13 583.5,-53.13 590.5,-53.13"/>
<text text-anchor="middle" x="597" y="-63.6" font-family="Helvetica,sans-Serif" font-size="8.00">result</text>
</g>
</g>
</svg>
