<svg xmlns="http://www.w3.org/2000/svg" xmlns:xlink="http://www.w3.org/1999/xlink" xmlns:s="https://github.com/nturley/netlistsvg" width="1142" height="563">
  <style>svg {
    stroke:#000;
    fill:none;
  }
  text {
    fill:#000;
    stroke:none;
    font-size:10px;
    font-weight: bold;
    font-family: "Courier New", monospace;
  }
  .nodelabel {
    text-anchor: middle;
  }
  .inputPortLabel {
    text-anchor: end;
  }
  .splitjoinBody {
    fill:#000;
  }</style>
  <g s:type="add" transform="translate(806,58)" s:width="25" s:height="25" id="cell_$add$generated/yosys/PE.sv:28$3">
    <s:alias val="$add"/>
    <circle r="12.5" cx="12.5" cy="12.5" class="cell_$add$generated/yosys/PE.sv:28$3"/>
    <line x1="7.5" x2="17.5" y1="12.5" y2="12.5" class="cell_$add$generated/yosys/PE.sv:28$3"/>
    <line x1="12.5" x2="12.5" y1="7.5" y2="17.5" class="cell_$add$generated/yosys/PE.sv:28$3"/>
    <g s:x="3" s:y="5" s:pid="A"/>
    <g s:x="3" s:y="20" s:pid="B"/>
    <g s:x="25" s:y="12.5" s:pid="Y"/>
  </g>
  <g s:type="generic" transform="translate(150,66.5)" s:width="30" s:height="40" id="cell_$auto$ff.cc:266:slice$19">
    <text x="15" y="-4" class="nodelabel cell_$auto$ff.cc:266:slice$19" s:attribute="ref">$sdffe</text>
    <rect width="30" height="80" s:generic="body" class="cell_$auto$ff.cc:266:slice$19"/>
    <g transform="translate(0,10)" s:x="0" s:y="10" s:pid="in0" id="port_$auto$ff.cc:266:slice$19~CLK">
      <text x="-3" y="-4" class="inputPortLabel cell_$auto$ff.cc:266:slice$19">CLK</text>
    </g>
    <g transform="translate(0,30)" s:x="0" s:y="10" s:pid="in0" id="port_$auto$ff.cc:266:slice$19~D">
      <text x="-3" y="-4" class="inputPortLabel cell_$auto$ff.cc:266:slice$19">D</text>
    </g>
    <g transform="translate(0,50)" s:x="0" s:y="10" s:pid="in0" id="port_$auto$ff.cc:266:slice$19~EN">
      <text x="-3" y="-4" class="inputPortLabel cell_$auto$ff.cc:266:slice$19">EN</text>
    </g>
    <g transform="translate(0,70)" s:x="0" s:y="10" s:pid="in0" id="port_$auto$ff.cc:266:slice$19~SRST">
      <text x="-3" y="-4" class="inputPortLabel cell_$auto$ff.cc:266:slice$19">SRST</text>
    </g>
    <g transform="translate(30,10)" s:x="30" s:y="10" s:pid="out0" id="port_$auto$ff.cc:266:slice$19~Q">
      <text x="5" y="-4" style="fill:#000; stroke:none" class="cell_$auto$ff.cc:266:slice$19">Q</text>
    </g>
  </g>
  <g s:type="generic" transform="translate(891,488)" s:width="30" s:height="40" id="cell_$auto$ff.cc:266:slice$20">
    <text x="15" y="-4" class="nodelabel cell_$auto$ff.cc:266:slice$20" s:attribute="ref">$sdff</text>
    <rect width="30" height="60" s:generic="body" class="cell_$auto$ff.cc:266:slice$20"/>
    <g transform="translate(0,10)" s:x="0" s:y="10" s:pid="in0" id="port_$auto$ff.cc:266:slice$20~CLK">
      <text x="-3" y="-4" class="inputPortLabel cell_$auto$ff.cc:266:slice$20">CLK</text>
    </g>
    <g transform="translate(0,30)" s:x="0" s:y="10" s:pid="in0" id="port_$auto$ff.cc:266:slice$20~D">
      <text x="-3" y="-4" class="inputPortLabel cell_$auto$ff.cc:266:slice$20">D</text>
    </g>
    <g transform="translate(0,50)" s:x="0" s:y="10" s:pid="in0" id="port_$auto$ff.cc:266:slice$20~SRST">
      <text x="-3" y="-4" class="inputPortLabel cell_$auto$ff.cc:266:slice$20">SRST</text>
    </g>
    <g transform="translate(30,10)" s:x="30" s:y="10" s:pid="out0" id="port_$auto$ff.cc:266:slice$20~Q">
      <text x="5" y="-4" style="fill:#000; stroke:none" class="cell_$auto$ff.cc:266:slice$20">Q</text>
    </g>
  </g>
  <g s:type="generic" transform="translate(891,40)" s:width="30" s:height="40" id="cell_$auto$ff.cc:266:slice$21">
    <text x="15" y="-4" class="nodelabel cell_$auto$ff.cc:266:slice$21" s:attribute="ref">$sdff</text>
    <rect width="30" height="60" s:generic="body" class="cell_$auto$ff.cc:266:slice$21"/>
    <g transform="translate(0,10)" s:x="0" s:y="10" s:pid="in0" id="port_$auto$ff.cc:266:slice$21~CLK">
      <text x="-3" y="-4" class="inputPortLabel cell_$auto$ff.cc:266:slice$21">CLK</text>
    </g>
    <g transform="translate(0,30)" s:x="0" s:y="10" s:pid="in0" id="port_$auto$ff.cc:266:slice$21~D">
      <text x="-3" y="-4" class="inputPortLabel cell_$auto$ff.cc:266:slice$21">D</text>
    </g>
    <g transform="translate(0,50)" s:x="0" s:y="10" s:pid="in0" id="port_$auto$ff.cc:266:slice$21~SRST">
      <text x="-3" y="-4" class="inputPortLabel cell_$auto$ff.cc:266:slice$21">SRST</text>
    </g>
    <g transform="translate(30,10)" s:x="30" s:y="10" s:pid="out0" id="port_$auto$ff.cc:266:slice$21~Q">
      <text x="5" y="-4" style="fill:#000; stroke:none" class="cell_$auto$ff.cc:266:slice$21">Q</text>
    </g>
  </g>
  <g s:type="generic" transform="translate(443,116)" s:width="30" s:height="40" id="cell_$mul$generated/yosys/PE.sv:17$1">
    <text x="15" y="-4" class="nodelabel cell_$mul$generated/yosys/PE.sv:17$1" s:attribute="ref">$mul</text>
    <rect width="30" height="40" s:generic="body" class="cell_$mul$generated/yosys/PE.sv:17$1"/>
    <g transform="translate(0,10)" s:x="0" s:y="10" s:pid="in0" id="port_$mul$generated/yosys/PE.sv:17$1~A">
      <text x="-3" y="-4" class="inputPortLabel cell_$mul$generated/yosys/PE.sv:17$1">A</text>
    </g>
    <g transform="translate(0,30)" s:x="0" s:y="10" s:pid="in0" id="port_$mul$generated/yosys/PE.sv:17$1~B">
      <text x="-3" y="-4" class="inputPortLabel cell_$mul$generated/yosys/PE.sv:17$1">B</text>
    </g>
    <g transform="translate(30,10)" s:x="30" s:y="10" s:pid="out0" id="port_$mul$generated/yosys/PE.sv:17$1~Y">
      <text x="5" y="-4" style="fill:#000; stroke:none" class="cell_$mul$generated/yosys/PE.sv:17$1">Y</text>
    </g>
  </g>
  <g s:type="inputExt" transform="translate(12,22)" s:width="30" s:height="20" id="cell_clock">
    <text x="15" y="-4" class="nodelabel cell_clock" s:attribute="ref">clock</text>
    <s:alias val="$_inputExt_"/>
    <path d="M0,0 L0,20 L15,20 L30,10 L15,0 Z" class="cell_clock"/>
    <g s:x="28" s:y="10" s:pid="Y"/>
  </g>
  <g s:type="inputExt" transform="translate(12,519.5)" s:width="30" s:height="20" id="cell_reset">
    <text x="15" y="-4" class="nodelabel cell_reset" s:attribute="ref">reset</text>
    <s:alias val="$_inputExt_"/>
    <path d="M0,0 L0,20 L15,20 L30,10 L15,0 Z" class="cell_reset"/>
    <g s:x="28" s:y="10" s:pid="Y"/>
  </g>
  <g s:type="inputExt" transform="translate(12,152)" s:width="30" s:height="20" id="cell_io_weightLoad">
    <text x="15" y="-4" class="nodelabel cell_io_weightLoad" s:attribute="ref">io_weightLoad</text>
    <s:alias val="$_inputExt_"/>
    <path d="M0,0 L0,20 L15,20 L30,10 L15,0 Z" class="cell_io_weightLoad"/>
    <g s:x="28" s:y="10" s:pid="Y"/>
  </g>
  <g s:type="inputExt" transform="translate(12,87)" s:width="30" s:height="20" id="cell_io_weightIn">
    <text x="15" y="-4" class="nodelabel cell_io_weightIn" s:attribute="ref">io_weightIn</text>
    <s:alias val="$_inputExt_"/>
    <path d="M0,0 L0,20 L15,20 L30,10 L15,0 Z" class="cell_io_weightIn"/>
    <g s:x="28" s:y="10" s:pid="Y"/>
  </g>
  <g s:type="inputExt" transform="translate(150,194.5)" s:width="30" s:height="20" id="cell_io_dataIn">
    <text x="15" y="-4" class="nodelabel cell_io_dataIn" s:attribute="ref">io_dataIn</text>
    <s:alias val="$_inputExt_"/>
    <path d="M0,0 L0,20 L15,20 L30,10 L15,0 Z" class="cell_io_dataIn"/>
    <g s:x="28" s:y="10" s:pid="Y"/>
  </g>
  <g s:type="outputExt" transform="translate(1070,488.5)" s:width="30" s:height="20" id="cell_io_dataOut">
    <text x="15" y="-4" class="nodelabel cell_io_dataOut" s:attribute="ref">io_dataOut</text>
    <s:alias val="$_outputExt_"/>
    <path d="M30,0 L30,20 L15,20 L0,10 L15,0 Z" class="cell_io_dataOut"/>
    <g s:x="0" s:y="10" s:pid="A"/>
  </g>
  <g s:type="inputExt" transform="translate(717,53)" s:width="30" s:height="20" id="cell_io_psumIn">
    <text x="15" y="-4" class="nodelabel cell_io_psumIn" s:attribute="ref">io_psumIn</text>
    <s:alias val="$_inputExt_"/>
    <path d="M0,0 L0,20 L15,20 L30,10 L15,0 Z" class="cell_io_psumIn"/>
    <g s:x="28" s:y="10" s:pid="Y"/>
  </g>
  <g s:type="outputExt" transform="translate(1070,40.5)" s:width="30" s:height="20" id="cell_io_psumOut">
    <text x="15" y="-4" class="nodelabel cell_io_psumOut" s:attribute="ref">io_psumOut</text>
    <s:alias val="$_outputExt_"/>
    <path d="M30,0 L30,20 L15,20 L0,10 L15,0 Z" class="cell_io_psumOut"/>
    <g s:x="0" s:y="10" s:pid="A"/>
  </g>
  <g s:type="join" transform="translate(742,148.5)" s:width="4" s:height="40" id="cell_$join$,93,94,95,96,97,98,99,100,101,102,103,104,105,106,107,108,108,108,108,108,108,108,108,108,108,108,108,108,108,108,108,108,">
    <rect width="5" height="340" class="splitjoinBody" s:generic="body"/>
    <s:alias val="$_join_"/>
    <g s:x="5" s:y="20" s:pid="out"/>
    <g transform="translate(0,10)" s:x="0" s:y="10" s:pid="in0">
      <text x="-3" y="-4" class="inputPortLabel">0:15</text>
    </g>
    <g transform="translate(0,30)" s:x="0" s:y="10" s:pid="in0">
      <text x="-3" y="-4" class="inputPortLabel">16</text>
    </g>
    <g transform="translate(0,50)" s:x="0" s:y="10" s:pid="in0">
      <text x="-3" y="-4" class="inputPortLabel">17</text>
    </g>
    <g transform="translate(0,70)" s:x="0" s:y="10" s:pid="in0">
      <text x="-3" y="-4" class="inputPortLabel">18</text>
    </g>
    <g transform="translate(0,90)" s:x="0" s:y="10" s:pid="in0">
      <text x="-3" y="-4" class="inputPortLabel">19</text>
    </g>
    <g transform="translate(0,110)" s:x="0" s:y="10" s:pid="in0">
      <text x="-3" y="-4" class="inputPortLabel">20</text>
    </g>
    <g transform="translate(0,130)" s:x="0" s:y="10" s:pid="in0">
      <text x="-3" y="-4" class="inputPortLabel">21</text>
    </g>
    <g transform="translate(0,150)" s:x="0" s:y="10" s:pid="in0">
      <text x="-3" y="-4" class="inputPortLabel">22</text>
    </g>
    <g transform="translate(0,170)" s:x="0" s:y="10" s:pid="in0">
      <text x="-3" y="-4" class="inputPortLabel">23</text>
    </g>
    <g transform="translate(0,190)" s:x="0" s:y="10" s:pid="in0">
      <text x="-3" y="-4" class="inputPortLabel">24</text>
    </g>
    <g transform="translate(0,210)" s:x="0" s:y="10" s:pid="in0">
      <text x="-3" y="-4" class="inputPortLabel">25</text>
    </g>
    <g transform="translate(0,230)" s:x="0" s:y="10" s:pid="in0">
      <text x="-3" y="-4" class="inputPortLabel">26</text>
    </g>
    <g transform="translate(0,250)" s:x="0" s:y="10" s:pid="in0">
      <text x="-3" y="-4" class="inputPortLabel">27</text>
    </g>
    <g transform="translate(0,270)" s:x="0" s:y="10" s:pid="in0">
      <text x="-3" y="-4" class="inputPortLabel">28</text>
    </g>
    <g transform="translate(0,290)" s:x="0" s:y="10" s:pid="in0">
      <text x="-3" y="-4" class="inputPortLabel">29</text>
    </g>
    <g transform="translate(0,310)" s:x="0" s:y="10" s:pid="in0">
      <text x="-3" y="-4" class="inputPortLabel">30</text>
    </g>
    <g transform="translate(0,330)" s:x="0" s:y="10" s:pid="in0">
      <text x="-3" y="-4" class="inputPortLabel">31</text>
    </g>
  </g>
  <g s:type="join" transform="translate(381,106)" s:width="4" s:height="40" id="cell_$join$,141,142,143,144,145,146,147,148,148,148,148,148,148,148,148,148,">
    <rect width="5" height="180" class="splitjoinBody" s:generic="body"/>
    <s:alias val="$_join_"/>
    <g s:x="5" s:y="20" s:pid="out"/>
    <g transform="translate(0,10)" s:x="0" s:y="10" s:pid="in0">
      <text x="-3" y="-4" class="inputPortLabel">0:7</text>
    </g>
    <g transform="translate(0,30)" s:x="0" s:y="10" s:pid="in0">
      <text x="-3" y="-4" class="inputPortLabel">8</text>
    </g>
    <g transform="translate(0,50)" s:x="0" s:y="10" s:pid="in0">
      <text x="-3" y="-4" class="inputPortLabel">9</text>
    </g>
    <g transform="translate(0,70)" s:x="0" s:y="10" s:pid="in0">
      <text x="-3" y="-4" class="inputPortLabel">10</text>
    </g>
    <g transform="translate(0,90)" s:x="0" s:y="10" s:pid="in0">
      <text x="-3" y="-4" class="inputPortLabel">11</text>
    </g>
    <g transform="translate(0,110)" s:x="0" s:y="10" s:pid="in0">
      <text x="-3" y="-4" class="inputPortLabel">12</text>
    </g>
    <g transform="translate(0,130)" s:x="0" s:y="10" s:pid="in0">
      <text x="-3" y="-4" class="inputPortLabel">13</text>
    </g>
    <g transform="translate(0,150)" s:x="0" s:y="10" s:pid="in0">
      <text x="-3" y="-4" class="inputPortLabel">14</text>
    </g>
    <g transform="translate(0,170)" s:x="0" s:y="10" s:pid="in0">
      <text x="-3" y="-4" class="inputPortLabel">15</text>
    </g>
  </g>
  <g s:type="join" transform="translate(381,318)" s:width="4" s:height="40" id="cell_$join$,13,14,15,16,17,18,19,20,20,20,20,20,20,20,20,20,">
    <rect width="5" height="180" class="splitjoinBody" s:generic="body"/>
    <s:alias val="$_join_"/>
    <g s:x="5" s:y="20" s:pid="out"/>
    <g transform="translate(0,10)" s:x="0" s:y="10" s:pid="in0">
      <text x="-3" y="-4" class="inputPortLabel">0:7</text>
    </g>
    <g transform="translate(0,30)" s:x="0" s:y="10" s:pid="in0">
      <text x="-3" y="-4" class="inputPortLabel">8</text>
    </g>
    <g transform="translate(0,50)" s:x="0" s:y="10" s:pid="in0">
      <text x="-3" y="-4" class="inputPortLabel">9</text>
    </g>
    <g transform="translate(0,70)" s:x="0" s:y="10" s:pid="in0">
      <text x="-3" y="-4" class="inputPortLabel">10</text>
    </g>
    <g transform="translate(0,90)" s:x="0" s:y="10" s:pid="in0">
      <text x="-3" y="-4" class="inputPortLabel">11</text>
    </g>
    <g transform="translate(0,110)" s:x="0" s:y="10" s:pid="in0">
      <text x="-3" y="-4" class="inputPortLabel">12</text>
    </g>
    <g transform="translate(0,130)" s:x="0" s:y="10" s:pid="in0">
      <text x="-3" y="-4" class="inputPortLabel">13</text>
    </g>
    <g transform="translate(0,150)" s:x="0" s:y="10" s:pid="in0">
      <text x="-3" y="-4" class="inputPortLabel">14</text>
    </g>
    <g transform="translate(0,170)" s:x="0" s:y="10" s:pid="in0">
      <text x="-3" y="-4" class="inputPortLabel">15</text>
    </g>
  </g>
  <g s:type="split" transform="translate(664,93.5)" s:width="5" s:height="40" id="cell_$split$,93,94,95,96,97,98,99,100,101,102,103,104,105,106,107,108,">
    <rect width="5" height="20" class="splitjoinBody" s:generic="body"/>
    <s:alias val="$_split_"/>
    <g s:x="0" s:y="20" s:pid="in"/>
    <g transform="translate(4,10)" s:x="4" s:y="10" s:pid="out0">
      <text x="5" y="-4">15</text>
    </g>
  </g>
  <g s:type="split" transform="translate(329,43)" s:width="5" s:height="40" id="cell_$split$,141,142,143,144,145,146,147,148,">
    <rect width="5" height="20" class="splitjoinBody" s:generic="body"/>
    <s:alias val="$_split_"/>
    <g s:x="0" s:y="20" s:pid="in"/>
    <g transform="translate(4,10)" s:x="4" s:y="10" s:pid="out0">
      <text x="5" y="-4">7</text>
    </g>
  </g>
  <g s:type="split" transform="translate(329,98)" s:width="5" s:height="40" id="cell_$split$,13,14,15,16,17,18,19,20,">
    <rect width="5" height="20" class="splitjoinBody" s:generic="body"/>
    <s:alias val="$_split_"/>
    <g s:x="0" s:y="20" s:pid="in"/>
    <g transform="translate(4,10)" s:x="4" s:y="10" s:pid="out0">
      <text x="5" y="-4">7</text>
    </g>
  </g>
  <line x1="745" x2="809" y1="63" y2="63" class="net_29,30,31,32,33,34,35,36,37,38,39,40,41,42,43,44,45,46,47,48,49,50,51,52,53,54,55,56,57,58,59,60"/>
  <line x1="748" x2="781" y1="169" y2="169" class="net_93,94,95,96,97,98,99,100,101,102,103,104,105,106,107,108,108,108,108,108,108,108,108,108,108,108,108,108,108,108,108,108"/>
  <line x1="781" x2="781" y1="169" y2="78" class="net_93,94,95,96,97,98,99,100,101,102,103,104,105,106,107,108,108,108,108,108,108,108,108,108,108,108,108,108,108,108,108,108"/>
  <line x1="781" x2="809" y1="78" y2="78" class="net_93,94,95,96,97,98,99,100,101,102,103,104,105,106,107,108,108,108,108,108,108,108,108,108,108,108,108,108,108,108,108,108"/>
  <line x1="40" x2="100" y1="32" y2="32" class="net_2"/>
  <line x1="100" x2="100" y1="32" y2="77" class="net_2"/>
  <circle cx="100" cy="32" r="2" style="fill:#000" class="net_2"/>
  <line x1="100" x2="150" y1="77" y2="77" class="net_2"/>
  <line x1="40" x2="692" y1="32" y2="32" class="net_2"/>
  <line x1="692" x2="692" y1="32" y2="93" class="net_2"/>
  <line x1="692" x2="851" y1="93" y2="93" class="net_2"/>
  <line x1="851" x2="851" y1="93" y2="498.5" class="net_2"/>
  <circle cx="692" cy="32" r="2" style="fill:#000" class="net_2"/>
  <line x1="851" x2="891" y1="498.5" y2="498.5" class="net_2"/>
  <line x1="40" x2="841" y1="32" y2="32" class="net_2"/>
  <line x1="841" x2="841" y1="32" y2="50.5" class="net_2"/>
  <line x1="841" x2="891" y1="50.5" y2="50.5" class="net_2"/>
  <line x1="40" x2="150" y1="97" y2="97" class="net_5,6,7,8,9,10,11,12"/>
  <line x1="40" x2="100" y1="162" y2="162" class="net_4"/>
  <line x1="100" x2="100" y1="162" y2="117" class="net_4"/>
  <line x1="100" x2="150" y1="117" y2="117" class="net_4"/>
  <line x1="40" x2="110" y1="529.5" y2="529.5" class="net_3"/>
  <line x1="110" x2="110" y1="529.5" y2="137" class="net_3"/>
  <circle cx="110" cy="529.5" r="2" style="fill:#000" class="net_3"/>
  <line x1="110" x2="150" y1="137" y2="137" class="net_3"/>
  <line x1="40" x2="841" y1="529.5" y2="529.5" class="net_3"/>
  <line x1="841" x2="841" y1="529.5" y2="538.5" class="net_3"/>
  <line x1="841" x2="891" y1="538.5" y2="538.5" class="net_3"/>
  <line x1="40" x2="841" y1="529.5" y2="529.5" class="net_3"/>
  <line x1="841" x2="841" y1="529.5" y2="90.5" class="net_3"/>
  <circle cx="841" cy="529.5" r="2" style="fill:#000" class="net_3"/>
  <line x1="841" x2="891" y1="90.5" y2="90.5" class="net_3"/>
  <line x1="178" x2="304" y1="204.5" y2="204.5" class="net_13,14,15,16,17,18,19,20"/>
  <line x1="304" x2="304" y1="204.5" y2="306" class="net_13,14,15,16,17,18,19,20"/>
  <line x1="304" x2="351" y1="306" y2="306" class="net_13,14,15,16,17,18,19,20"/>
  <line x1="351" x2="351" y1="306" y2="518.5" class="net_13,14,15,16,17,18,19,20"/>
  <circle cx="304" cy="204.5" r="2" style="fill:#000" class="net_13,14,15,16,17,18,19,20"/>
  <circle cx="351" cy="306" r="2" style="fill:#000" class="net_13,14,15,16,17,18,19,20"/>
  <line x1="351" x2="891" y1="518.5" y2="518.5" class="net_13,14,15,16,17,18,19,20"/>
  <line x1="178" x2="304" y1="204.5" y2="204.5" class="net_13,14,15,16,17,18,19,20"/>
  <line x1="304" x2="304" y1="204.5" y2="306" class="net_13,14,15,16,17,18,19,20"/>
  <line x1="304" x2="381.5" y1="306" y2="306" class="net_13,14,15,16,17,18,19,20"/>
  <line x1="381.5" x2="381.5" y1="306" y2="328" class="net_13,14,15,16,17,18,19,20"/>
  <line x1="178" x2="329.5" y1="204.5" y2="204.5" class="net_13,14,15,16,17,18,19,20"/>
  <line x1="329.5" x2="329.5" y1="204.5" y2="119" class="net_13,14,15,16,17,18,19,20"/>
  <line x1="831" x2="891" y1="70.5" y2="70.5" class="net_109,110,111,112,113,114,115,116,117,118,119,120,121,122,123,124,125,126,127,128,129,130,131,132,133,134,135,136,137,138,139,140"/>
  <line x1="387" x2="443" y1="126.5" y2="126.5" class="net_141,142,143,144,145,146,147,148,148,148,148,148,148,148,148,148"/>
  <line x1="387" x2="411" y1="338.5" y2="338.5" class="net_13,14,15,16,17,18,19,20,20,20,20,20,20,20,20,20"/>
  <line x1="411" x2="411" y1="338.5" y2="146.5" class="net_13,14,15,16,17,18,19,20,20,20,20,20,20,20,20,20"/>
  <line x1="411" x2="443" y1="146.5" y2="146.5" class="net_13,14,15,16,17,18,19,20,20,20,20,20,20,20,20,20"/>
  <line x1="922" x2="1070" y1="498.5" y2="498.5" class="net_21,22,23,24,25,26,27,28"/>
  <line x1="922" x2="1070" y1="50.5" y2="50.5" class="net_61,62,63,64,65,66,67,68,69,70,71,72,73,74,75,76,77,78,79,80,81,82,83,84,85,86,87,88,89,90,91,92"/>
  <line x1="474" x2="639" y1="126.5" y2="126.5" class="net_93,94,95,96,97,98,99,100,101,102,103,104,105,106,107,108"/>
  <line x1="639" x2="639" y1="126.5" y2="136.5" class="net_93,94,95,96,97,98,99,100,101,102,103,104,105,106,107,108"/>
  <line x1="639" x2="742.5" y1="136.5" y2="136.5" class="net_93,94,95,96,97,98,99,100,101,102,103,104,105,106,107,108"/>
  <circle cx="639" cy="126.5" r="2" style="fill:#000" class="net_93,94,95,96,97,98,99,100,101,102,103,104,105,106,107,108"/>
  <line x1="742.5" x2="742.5" y1="136.5" y2="158.5" class="net_93,94,95,96,97,98,99,100,101,102,103,104,105,106,107,108"/>
  <line x1="474" x2="664.5" y1="126.5" y2="126.5" class="net_93,94,95,96,97,98,99,100,101,102,103,104,105,106,107,108"/>
  <line x1="664.5" x2="664.5" y1="126.5" y2="114.5" class="net_93,94,95,96,97,98,99,100,101,102,103,104,105,106,107,108"/>
  <line x1="669" x2="742.5" y1="104" y2="104" class="net_108"/>
  <line x1="742.5" x2="742.5" y1="104" y2="178.5" class="net_108"/>
  <line x1="669" x2="692" y1="104" y2="104" class="net_108"/>
  <line x1="692" x2="692" y1="104" y2="199" class="net_108"/>
  <circle cx="692" cy="104" r="2" style="fill:#000" class="net_108"/>
  <circle cx="692" cy="199" r="2" style="fill:#000" class="net_108"/>
  <line x1="692" x2="742" y1="199" y2="199" class="net_108"/>
  <line x1="669" x2="692" y1="104" y2="104" class="net_108"/>
  <line x1="692" x2="692" y1="104" y2="219" class="net_108"/>
  <circle cx="692" cy="219" r="2" style="fill:#000" class="net_108"/>
  <line x1="692" x2="742" y1="219" y2="219" class="net_108"/>
  <line x1="669" x2="692" y1="104" y2="104" class="net_108"/>
  <line x1="692" x2="692" y1="104" y2="239" class="net_108"/>
  <circle cx="692" cy="239" r="2" style="fill:#000" class="net_108"/>
  <line x1="692" x2="742" y1="239" y2="239" class="net_108"/>
  <line x1="669" x2="692" y1="104" y2="104" class="net_108"/>
  <line x1="692" x2="692" y1="104" y2="259" class="net_108"/>
  <circle cx="692" cy="259" r="2" style="fill:#000" class="net_108"/>
  <line x1="692" x2="742" y1="259" y2="259" class="net_108"/>
  <line x1="669" x2="692" y1="104" y2="104" class="net_108"/>
  <line x1="692" x2="692" y1="104" y2="279" class="net_108"/>
  <circle cx="692" cy="279" r="2" style="fill:#000" class="net_108"/>
  <line x1="692" x2="742" y1="279" y2="279" class="net_108"/>
  <line x1="669" x2="692" y1="104" y2="104" class="net_108"/>
  <line x1="692" x2="692" y1="104" y2="299" class="net_108"/>
  <circle cx="692" cy="299" r="2" style="fill:#000" class="net_108"/>
  <line x1="692" x2="742" y1="299" y2="299" class="net_108"/>
  <line x1="669" x2="692" y1="104" y2="104" class="net_108"/>
  <line x1="692" x2="692" y1="104" y2="319" class="net_108"/>
  <circle cx="692" cy="319" r="2" style="fill:#000" class="net_108"/>
  <line x1="692" x2="742" y1="319" y2="319" class="net_108"/>
  <line x1="669" x2="692" y1="104" y2="104" class="net_108"/>
  <line x1="692" x2="692" y1="104" y2="339" class="net_108"/>
  <circle cx="692" cy="339" r="2" style="fill:#000" class="net_108"/>
  <line x1="692" x2="742" y1="339" y2="339" class="net_108"/>
  <line x1="669" x2="692" y1="104" y2="104" class="net_108"/>
  <line x1="692" x2="692" y1="104" y2="359" class="net_108"/>
  <circle cx="692" cy="359" r="2" style="fill:#000" class="net_108"/>
  <line x1="692" x2="742" y1="359" y2="359" class="net_108"/>
  <line x1="669" x2="692" y1="104" y2="104" class="net_108"/>
  <line x1="692" x2="692" y1="104" y2="379" class="net_108"/>
  <circle cx="692" cy="379" r="2" style="fill:#000" class="net_108"/>
  <line x1="692" x2="742" y1="379" y2="379" class="net_108"/>
  <line x1="669" x2="692" y1="104" y2="104" class="net_108"/>
  <line x1="692" x2="692" y1="104" y2="399" class="net_108"/>
  <circle cx="692" cy="399" r="2" style="fill:#000" class="net_108"/>
  <line x1="692" x2="742" y1="399" y2="399" class="net_108"/>
  <line x1="669" x2="692" y1="104" y2="104" class="net_108"/>
  <line x1="692" x2="692" y1="104" y2="419" class="net_108"/>
  <circle cx="692" cy="419" r="2" style="fill:#000" class="net_108"/>
  <line x1="692" x2="742" y1="419" y2="419" class="net_108"/>
  <line x1="669" x2="692" y1="104" y2="104" class="net_108"/>
  <line x1="692" x2="692" y1="104" y2="439" class="net_108"/>
  <circle cx="692" cy="439" r="2" style="fill:#000" class="net_108"/>
  <line x1="692" x2="742" y1="439" y2="439" class="net_108"/>
  <line x1="669" x2="692" y1="104" y2="104" class="net_108"/>
  <line x1="692" x2="692" y1="104" y2="508.5" class="net_108"/>
  <line x1="692" x2="742.5" y1="508.5" y2="508.5" class="net_108"/>
  <line x1="742.5" x2="742.5" y1="508.5" y2="459.5" class="net_108"/>
  <line x1="669" x2="692" y1="104" y2="104" class="net_108"/>
  <line x1="692" x2="692" y1="104" y2="498.5" class="net_108"/>
  <line x1="692" x2="742.5" y1="498.5" y2="498.5" class="net_108"/>
  <circle cx="692" cy="498.5" r="2" style="fill:#000" class="net_108"/>
  <line x1="742.5" x2="742.5" y1="498.5" y2="479.5" class="net_108"/>
  <line x1="181" x2="304" y1="77" y2="77" class="net_141,142,143,144,145,146,147,148"/>
  <line x1="304" x2="304" y1="77" y2="87" class="net_141,142,143,144,145,146,147,148"/>
  <line x1="304" x2="381.5" y1="87" y2="87" class="net_141,142,143,144,145,146,147,148"/>
  <circle cx="304" cy="77" r="2" style="fill:#000" class="net_141,142,143,144,145,146,147,148"/>
  <line x1="381.5" x2="381.5" y1="87" y2="116" class="net_141,142,143,144,145,146,147,148"/>
  <line x1="181" x2="329.5" y1="77" y2="77" class="net_141,142,143,144,145,146,147,148"/>
  <line x1="329.5" x2="329.5" y1="77" y2="64" class="net_141,142,143,144,145,146,147,148"/>
  <line x1="334" x2="371" y1="53.5" y2="53.5" class="net_148"/>
  <line x1="371" x2="371" y1="53.5" y2="136.5" class="net_148"/>
  <circle cx="371" cy="136.5" r="2" style="fill:#000" class="net_148"/>
  <line x1="371" x2="381" y1="136.5" y2="136.5" class="net_148"/>
  <line x1="334" x2="371" y1="53.5" y2="53.5" class="net_148"/>
  <line x1="371" x2="371" y1="53.5" y2="156.5" class="net_148"/>
  <circle cx="371" cy="156.5" r="2" style="fill:#000" class="net_148"/>
  <line x1="371" x2="381" y1="156.5" y2="156.5" class="net_148"/>
  <line x1="334" x2="371" y1="53.5" y2="53.5" class="net_148"/>
  <line x1="371" x2="371" y1="53.5" y2="176.5" class="net_148"/>
  <circle cx="371" cy="176.5" r="2" style="fill:#000" class="net_148"/>
  <line x1="371" x2="381" y1="176.5" y2="176.5" class="net_148"/>
  <line x1="334" x2="371" y1="53.5" y2="53.5" class="net_148"/>
  <line x1="371" x2="371" y1="53.5" y2="196.5" class="net_148"/>
  <circle cx="371" cy="196.5" r="2" style="fill:#000" class="net_148"/>
  <line x1="371" x2="381" y1="196.5" y2="196.5" class="net_148"/>
  <line x1="334" x2="371" y1="53.5" y2="53.5" class="net_148"/>
  <line x1="371" x2="371" y1="53.5" y2="216.5" class="net_148"/>
  <circle cx="371" cy="216.5" r="2" style="fill:#000" class="net_148"/>
  <line x1="371" x2="381" y1="216.5" y2="216.5" class="net_148"/>
  <line x1="334" x2="371" y1="53.5" y2="53.5" class="net_148"/>
  <line x1="371" x2="371" y1="53.5" y2="236.5" class="net_148"/>
  <circle cx="371" cy="236.5" r="2" style="fill:#000" class="net_148"/>
  <line x1="371" x2="381" y1="236.5" y2="236.5" class="net_148"/>
  <line x1="334" x2="371" y1="53.5" y2="53.5" class="net_148"/>
  <line x1="371" x2="371" y1="53.5" y2="256.5" class="net_148"/>
  <circle cx="371" cy="256.5" r="2" style="fill:#000" class="net_148"/>
  <line x1="371" x2="381" y1="256.5" y2="256.5" class="net_148"/>
  <line x1="334" x2="371" y1="53.5" y2="53.5" class="net_148"/>
  <line x1="371" x2="371" y1="53.5" y2="296" class="net_148"/>
  <line x1="371" x2="381.5" y1="296" y2="296" class="net_148"/>
  <line x1="381.5" x2="381.5" y1="296" y2="277" class="net_148"/>
  <line x1="334" x2="361" y1="108.5" y2="108.5" class="net_20"/>
  <line x1="361" x2="361" y1="108.5" y2="348.5" class="net_20"/>
  <circle cx="361" cy="348.5" r="2" style="fill:#000" class="net_20"/>
  <line x1="361" x2="381" y1="348.5" y2="348.5" class="net_20"/>
  <line x1="334" x2="361" y1="108.5" y2="108.5" class="net_20"/>
  <line x1="361" x2="361" y1="108.5" y2="368.5" class="net_20"/>
  <circle cx="361" cy="368.5" r="2" style="fill:#000" class="net_20"/>
  <line x1="361" x2="381" y1="368.5" y2="368.5" class="net_20"/>
  <line x1="334" x2="361" y1="108.5" y2="108.5" class="net_20"/>
  <line x1="361" x2="361" y1="108.5" y2="388.5" class="net_20"/>
  <circle cx="361" cy="388.5" r="2" style="fill:#000" class="net_20"/>
  <line x1="361" x2="381" y1="388.5" y2="388.5" class="net_20"/>
  <line x1="334" x2="361" y1="108.5" y2="108.5" class="net_20"/>
  <line x1="361" x2="361" y1="108.5" y2="408.5" class="net_20"/>
  <circle cx="361" cy="408.5" r="2" style="fill:#000" class="net_20"/>
  <line x1="361" x2="381" y1="408.5" y2="408.5" class="net_20"/>
  <line x1="334" x2="361" y1="108.5" y2="108.5" class="net_20"/>
  <line x1="361" x2="361" y1="108.5" y2="428.5" class="net_20"/>
  <circle cx="361" cy="428.5" r="2" style="fill:#000" class="net_20"/>
  <line x1="361" x2="381" y1="428.5" y2="428.5" class="net_20"/>
  <line x1="334" x2="361" y1="108.5" y2="108.5" class="net_20"/>
  <line x1="361" x2="361" y1="108.5" y2="448.5" class="net_20"/>
  <circle cx="361" cy="448.5" r="2" style="fill:#000" class="net_20"/>
  <line x1="361" x2="381" y1="448.5" y2="448.5" class="net_20"/>
  <line x1="334" x2="361" y1="108.5" y2="108.5" class="net_20"/>
  <line x1="361" x2="361" y1="108.5" y2="468.5" class="net_20"/>
  <circle cx="361" cy="468.5" r="2" style="fill:#000" class="net_20"/>
  <line x1="361" x2="381" y1="468.5" y2="468.5" class="net_20"/>
  <line x1="334" x2="361" y1="108.5" y2="108.5" class="net_20"/>
  <line x1="361" x2="361" y1="108.5" y2="508" class="net_20"/>
  <line x1="361" x2="381.5" y1="508" y2="508" class="net_20"/>
  <line x1="381.5" x2="381.5" y1="508" y2="489" class="net_20"/>
</svg>
